<?xml version="1.0" encoding="UTF-8"?>
<svg version="1.1" xmlns="http://www.w3.org/2000/svg" width="125" height="125">
<path d="M0 0 C2.90295957 0 3.99520347 0.99589479 6.1953125 2.87890625 C9.32355864 5.24469685 12.29158751 6.50842898 15.9375 7.9375 C21.03927989 10.03784401 25.26368154 11.85975522 29 16 C29.433125 17.216875 29.86625 18.43375 30.3125 19.6875 C31.57480991 23.09129652 31.57480991 23.09129652 33.93359375 23.71484375 C35.5091929 23.99382842 37.08754512 24.25760004 38.66796875 24.5078125 C45.81863711 26.01699879 49.87253027 32.02961025 54.0078125 37.59765625 C56.91502645 41.10341425 59.65732506 43.55244169 64 45 C63.42660108 47.96256109 62.78343229 50.88070869 62.0625 53.8125 C60.89925714 58.86454015 60.37834208 63.9908828 59.96118164 69.15161133 C59.42005361 74.42322478 57.91545642 77.68598516 55 82 C54.01 82.66 53.02 83.32 52 84 C51.82600528 86.79338269 51.82600528 86.79338269 52.125 90 C52.28613655 96.96723756 50.59991531 101.15623505 47 107 C43.77231511 112.42715992 41.40679922 116.62681223 41 123 C40.2265625 122.97679688 39.453125 122.95359375 38.65625 122.9296875 C31.8049406 122.73223223 31.8049406 122.73223223 25.125 124 C18.52830113 125.92634694 9.97412111 126.62868537 3.8828125 123.29296875 C2.93148437 122.86628906 1.98015625 122.43960938 1 122 C-1.51798124 123.2750611 -1.51798124 123.2750611 -4 125 C-10.75734548 125.75081616 -17.41859708 125.45919042 -23.9140625 123.4453125 C-28.51035206 122.46408215 -33.32481442 122.85974443 -38 123 C-38.165 121.80375 -38.33 120.6075 -38.5 119.375 C-39.81221405 113.27077464 -43.03547394 108.32004652 -46.22265625 103.0390625 C-48.86873381 98.51456065 -49.0087163 95.76404653 -48.75 90.625 C-48.57423393 85.43264106 -48.57423393 85.43264106 -51.3125 81.1875 C-52.199375 80.465625 -53.08625 79.74375 -54 79 C-56.59603225 73.23174297 -57.56633349 68.01736641 -58.0625 61.75 C-58.56492555 55.11589548 -58.56492555 55.11589548 -61 49 C-61 47.68 -61 46.36 -61 45 C-59.65615234 44.40832031 -59.65615234 44.40832031 -58.28515625 43.8046875 C-54.8487971 41.91693729 -52.96022904 40.09450932 -50.4375 37.125 C-49.66792969 36.23941406 -48.89835937 35.35382812 -48.10546875 34.44140625 C-47.41066406 33.63574219 -46.71585938 32.83007812 -46 32 C-42.01963592 27.62879913 -38.58637329 24.13612491 -32.4375 23.8125 C-29.00096042 23.41599872 -29.00096042 23.41599872 -27.91015625 21.33984375 C-27.28864571 19.9127702 -26.67029353 18.48431804 -26.0546875 17.0546875 C-22.60543177 10.33502633 -13.79815686 8.10523795 -7.20703125 5.52734375 C-4.05372898 4.02558835 -2.35113011 2.51906797 0 0 Z " fill="#6A99FA" transform="translate(61,0)"/>
<path d="M0 0 C2.90295957 0 3.99520347 0.99589479 6.1953125 2.87890625 C9.32355864 5.24469685 12.29158751 6.50842898 15.9375 7.9375 C21.03927989 10.03784401 25.26368154 11.85975522 29 16 C29.433125 17.216875 29.86625 18.43375 30.3125 19.6875 C31.57480991 23.09129652 31.57480991 23.09129652 33.93359375 23.71484375 C35.5091929 23.99382842 37.08754512 24.25760004 38.66796875 24.5078125 C45.81863711 26.01699879 49.87253027 32.02961025 54.0078125 37.59765625 C56.91502645 41.10341425 59.65732506 43.55244169 64 45 C63.42660108 47.96256109 62.78343229 50.88070869 62.0625 53.8125 C60.89925714 58.86454015 60.37834208 63.9908828 59.96118164 69.15161133 C59.42005361 74.42322478 57.91545642 77.68598516 55 82 C54.01 82.66 53.02 83.32 52 84 C51.82600528 86.79338269 51.82600528 86.79338269 52.125 90 C52.28613655 96.96723756 50.59991531 101.15623505 47 107 C43.77231511 112.42715992 41.40679922 116.62681223 41 123 C40.2265625 122.97679688 39.453125 122.95359375 38.65625 122.9296875 C31.8049406 122.73223223 31.8049406 122.73223223 25.125 124 C18.52830113 125.92634694 9.97412111 126.62868537 3.8828125 123.29296875 C2.93148437 122.86628906 1.98015625 122.43960938 1 122 C-1.51798124 123.2750611 -1.51798124 123.2750611 -4 125 C-10.75734548 125.75081616 -17.41859708 125.45919042 -23.9140625 123.4453125 C-28.51035206 122.46408215 -33.32481442 122.85974443 -38 123 C-38.165 121.80375 -38.33 120.6075 -38.5 119.375 C-39.81221405 113.27077464 -43.03547394 108.32004652 -46.22265625 103.0390625 C-48.86873381 98.51456065 -49.0087163 95.76404653 -48.75 90.625 C-48.57423393 85.43264106 -48.57423393 85.43264106 -51.3125 81.1875 C-52.199375 80.465625 -53.08625 79.74375 -54 79 C-56.59603225 73.23174297 -57.56633349 68.01736641 -58.0625 61.75 C-58.56492555 55.11589548 -58.56492555 55.11589548 -61 49 C-61 47.68 -61 46.36 -61 45 C-59.65615234 44.40832031 -59.65615234 44.40832031 -58.28515625 43.8046875 C-54.8487971 41.91693729 -52.96022904 40.09450932 -50.4375 37.125 C-49.66792969 36.23941406 -48.89835937 35.35382812 -48.10546875 34.44140625 C-47.41066406 33.63574219 -46.71585938 32.83007812 -46 32 C-42.01963592 27.62879913 -38.58637329 24.13612491 -32.4375 23.8125 C-29.00096042 23.41599872 -29.00096042 23.41599872 -27.91015625 21.33984375 C-27.28864571 19.9127702 -26.67029353 18.48431804 -26.0546875 17.0546875 C-22.60543177 10.33502633 -13.79815686 8.10523795 -7.20703125 5.52734375 C-4.05372898 4.02558835 -2.35113011 2.51906797 0 0 Z M1 5 C0.319375 5.76183594 -0.36125 6.52367187 -1.0625 7.30859375 C-4.27165376 10.24889553 -6.95993735 11.49958783 -11 13.0625 C-16.99119459 15.39312635 -21.51005335 17.43112647 -24.8125 23.125 C-26.12725338 25.78965518 -26.12725338 25.78965518 -26 28 C-27.03125 27.9175 -28.0625 27.835 -29.125 27.75 C-35.71196397 28.17496542 -38.8567839 31.71197629 -43.0625 36.4375 C-43.73796875 37.22125 -44.4134375 38.005 -45.109375 38.8125 C-48.15020798 42.33081915 -51.10949967 45.40633312 -55 48 C-54.68933594 48.804375 -54.37867188 49.60875 -54.05859375 50.4375 C-52.59351609 55.36794586 -52.27756315 60.25624691 -51.87695312 65.3671875 C-51.35004511 71.00652736 -50.15880013 75.40943985 -46.4375 79.875 C-45.04172921 81.20543609 -45.04172921 81.20543609 -43 81 C-43.33 81.99 -43.66 82.98 -44 84 C-45.66353979 92.58449306 -42.73070063 98.26488922 -38.28955078 105.34057617 C-35.84443326 109.25910882 -34.4023793 112.28118825 -34 117 C-33.33613281 116.97679688 -32.67226563 116.95359375 -31.98828125 116.9296875 C-31.10527344 116.91164063 -30.22226562 116.89359375 -29.3125 116.875 C-28.44238281 116.85179688 -27.57226562 116.82859375 -26.67578125 116.8046875 C-23.73564235 117.01929618 -21.71965087 117.89643346 -19 119 C-12.04960694 120.15694903 -6.11851211 121.02533692 0 117 C3 117 3 117 5.125 118.5 C9.81831306 120.94868508 14.39344958 120.72219709 19.453125 119.3203125 C21.11171505 118.77266484 22.7692701 118.22187279 24.42578125 117.66796875 C28.60651363 116.58313531 32.7152592 116.75385532 37 117 C37.165 115.96875 37.33 114.9375 37.5 113.875 C38.54564422 109.46612698 40.75671724 105.98779168 43.125 102.1875 C46.85333943 96.09320929 48.22137857 91.11421541 47 84 C46.67 83.01 46.34 82.02 46 81 C46.598125 80.7525 47.19625 80.505 47.8125 80.25 C51.65006989 78.05710292 52.75826469 75.73863568 54.125 71.5625 C55.21278767 66.81011615 55.42099286 62.00649739 55.65625 57.1484375 C56.01496231 53.86295885 56.84961381 51.08934357 58 48 C57.01 47.38125 56.02 46.7625 55 46.125 C50.82805837 43.17761614 48.01849482 39.47718493 44.9921875 35.40234375 C42.4138184 32.29313395 39.62548649 29.81274324 36 28 C33.6670134 27.95977609 31.33293334 27.95679753 29 28 C28.773125 27.113125 28.54625 26.22625 28.3125 25.3125 C25.6144469 18.50312788 20.29917514 15.83721254 14 12.9375 C9.19111277 10.69719737 5.03155549 8.53548519 1 5 Z " fill="#F1F5FE" transform="translate(61,0)"/>
<path d="M0 0 C8.1159276 0.83240283 15.0051473 3.98170341 20.4921875 10.04296875 C26.604358 17.97612269 27.0447269 26.19001438 26 36 C24.07737865 43.56296461 20.73389319 49.32323787 14.1875 53.6875 C7.44021961 57.65355391 0.39670066 59.25739454 -7.296875 57.46484375 C-15.68548667 54.88914587 -21.79122385 50.5709371 -26.19921875 42.91796875 C-29.93684619 35.00993596 -30.77502894 25.68500052 -28.15234375 17.28515625 C-24.87269768 10.78145133 -18.88546507 4.6461244 -12 2 C-11.01 2.33 -10.02 2.66 -9 3 C-11.64 4.98 -14.28 6.96 -17 9 C-16.67 10.32 -16.34 11.64 -16 13 C-17.65 13 -19.3 13 -21 13 C-23.53309233 17.64203897 -25.46515599 21.65155992 -26 27 C-23.03 27 -20.06 27 -17 27 C-17 25.35 -17 23.7 -17 22 C-16.01 21.67 -15.02 21.34 -14 21 C-14 23.31 -14 25.62 -14 28 C-12.68 28 -11.36 28 -10 28 C-10.33 29.65 -10.66 31.3 -11 33 C-10.34 33.33 -9.68 33.66 -9 34 C-9.33 34.66 -9.66 35.32 -10 36 C-3.63392191 37.66517133 0.79892075 38.42650927 7 36 C6.67 35.01 6.34 34.02 6 33 C6.66 33 7.32 33 8 33 C7.566875 32.05640625 7.13375 31.1128125 6.6875 30.140625 C3.41050322 22.69724439 1.43038085 16.820177 1.921875 8.54296875 C2.01922326 5.37428292 1.28158008 2.88355518 0 0 Z " fill="#E0E8F8" transform="translate(64,38)"/>
<path d="M0 0 C2.90295957 0 3.99520347 0.99589479 6.1953125 2.87890625 C9.32355864 5.24469685 12.29158751 6.50842898 15.9375 7.9375 C21.03927989 10.03784401 25.26368154 11.85975522 29 16 C29.433125 17.216875 29.86625 18.43375 30.3125 19.6875 C31.57480991 23.09129652 31.57480991 23.09129652 33.93359375 23.71484375 C35.5091929 23.99382842 37.08754512 24.25760004 38.66796875 24.5078125 C45.81863711 26.01699879 49.87253027 32.02961025 54.0078125 37.59765625 C56.91502645 41.10341425 59.65732506 43.55244169 64 45 C63.42660108 47.96256109 62.78343229 50.88070869 62.0625 53.8125 C60.89925714 58.86454015 60.37834208 63.9908828 59.96118164 69.15161133 C59.42005361 74.42322478 57.91545642 77.68598516 55 82 C54.01 82.66 53.02 83.32 52 84 C51.82600528 86.79338269 51.82600528 86.79338269 52.125 90 C52.28613655 96.96723756 50.59991531 101.15623505 47 107 C43.77231511 112.42715992 41.40679922 116.62681223 41 123 C40.2265625 122.97679688 39.453125 122.95359375 38.65625 122.9296875 C31.8049406 122.73223223 31.8049406 122.73223223 25.125 124 C18.52830113 125.92634694 9.97412111 126.62868537 3.8828125 123.29296875 C2.93148437 122.86628906 1.98015625 122.43960938 1 122 C-1.51798124 123.2750611 -1.51798124 123.2750611 -4 125 C-10.75734548 125.75081616 -17.41859708 125.45919042 -23.9140625 123.4453125 C-28.51035206 122.46408215 -33.32481442 122.85974443 -38 123 C-38.165 121.80375 -38.33 120.6075 -38.5 119.375 C-39.81221405 113.27077464 -43.03547394 108.32004652 -46.22265625 103.0390625 C-48.86873381 98.51456065 -49.0087163 95.76404653 -48.75 90.625 C-48.57423393 85.43264106 -48.57423393 85.43264106 -51.3125 81.1875 C-52.199375 80.465625 -53.08625 79.74375 -54 79 C-56.59603225 73.23174297 -57.56633349 68.01736641 -58.0625 61.75 C-58.56492555 55.11589548 -58.56492555 55.11589548 -61 49 C-61 47.68 -61 46.36 -61 45 C-59.65615234 44.40832031 -59.65615234 44.40832031 -58.28515625 43.8046875 C-54.8487971 41.91693729 -52.96022904 40.09450932 -50.4375 37.125 C-49.66792969 36.23941406 -48.89835937 35.35382812 -48.10546875 34.44140625 C-47.41066406 33.63574219 -46.71585938 32.83007812 -46 32 C-42.01963592 27.62879913 -38.58637329 24.13612491 -32.4375 23.8125 C-29.00096042 23.41599872 -29.00096042 23.41599872 -27.91015625 21.33984375 C-27.28864571 19.9127702 -26.67029353 18.48431804 -26.0546875 17.0546875 C-22.60543177 10.33502633 -13.79815686 8.10523795 -7.20703125 5.52734375 C-4.05372898 4.02558835 -2.35113011 2.51906797 0 0 Z M1 2 C0.56171875 2.37511719 0.1234375 2.75023437 -0.328125 3.13671875 C-4.39396264 6.41748612 -8.24921691 8.65352757 -13.125 10.5625 C-18.74693572 12.77720195 -22.93934554 14.9090183 -26.375 20.0625 C-27.20466852 22.29517038 -27.20466852 22.29517038 -27 26 C-28.299375 25.855625 -29.59875 25.71125 -30.9375 25.5625 C-37.20711549 25.59198095 -40.71501886 28.6921453 -45 33 C-47.11938839 35.53472641 -49.1384766 38.12295416 -51.13671875 40.75390625 C-53.49813664 43.60047918 -55.78045019 45.2292476 -59 47 C-58.68804687 47.62261719 -58.37609375 48.24523438 -58.0546875 48.88671875 C-56.3479163 53.92485448 -56.28801617 59.14658914 -55.96484375 64.43164062 C-55.49665229 70.28403394 -54.40577961 75.12175216 -51 80 C-50.2471875 80.55429688 -49.494375 81.10859375 -48.71875 81.6796875 C-48.1515625 82.11539063 -47.584375 82.55109375 -47 83 C-46.96875 85.3828125 -46.96875 85.3828125 -47.5 88.125 C-48.281413 94.26352273 -46.99689574 97.70874491 -44 103 C-42.95804242 104.89567346 -41.91638589 106.79151242 -40.875 108.6875 C-40.37742187 109.55761719 -39.87984375 110.42773438 -39.3671875 111.32421875 C-37.92170273 114.15323895 -36.93249058 116.9671854 -36 120 C-34.60587891 120.18175781 -34.60587891 120.18175781 -33.18359375 120.3671875 C-21.85074444 121.90344444 -21.85074444 121.90344444 -18.125 123.125 C-12.9709413 124.56813644 -8.74360599 124.72376098 -3.6875 122.625 C-1.76367186 121.46175508 0.12941224 120.2470585 2 119 C2.78375 119.639375 3.5675 120.27875 4.375 120.9375 C8.32279356 124.03933779 11.07828402 124.51446509 16 124 C17.92390443 123.52861601 19.84025023 123.02580123 21.75 122.5 C27.6050956 120.92533414 32.96894421 120.67945176 39 121 C39.350625 119.7625 39.70125 118.525 40.0625 117.25 C41.81241584 111.92416918 44.5593311 107.36514288 47.4765625 102.6015625 C49.73617592 98.74283805 50.13682238 95.89792495 50.125 91.5 C50.12757812 90.5409375 50.13015625 89.581875 50.1328125 88.59375 C50.10992972 85.88428848 50.10992972 85.88428848 49 83 C49.928125 82.484375 50.85625 81.96875 51.8125 81.4375 C55.41355955 78.96601809 57.05832915 76.24111301 58 72 C58.31923468 68.53523965 58.50873188 65.07647704 58.68359375 61.6015625 C59.12984831 56.52197354 60.4308743 51.83567038 62 47 C61.13375 46.48566406 60.2675 45.97132812 59.375 45.44140625 C54.86819985 42.43819523 51.83194196 38.24889552 48.5 34.04492188 C44.90807719 29.66258897 41.56244963 26.44679552 35.6640625 25.70703125 C32.83203125 25.85351562 32.83203125 25.85351562 30 26 C29.9175 25.113125 29.835 24.22625 29.75 23.3125 C28.87422401 19.4444894 27.68701837 17.8867292 25 15 C22.27525871 13.27698859 22.27525871 13.27698859 19.25 11.9375 C18.19296875 11.43476563 17.1359375 10.93203125 16.046875 10.4140625 C15.04140625 9.94742187 14.0359375 9.48078125 13 9 C8.7356072 6.95034023 4.74628786 4.91651796 1 2 Z " fill="#89AFF8" transform="translate(61,0)"/>
<path d="M0 0 C4.37841185 3.58669902 4.32958641 8.67478297 5 14 C5.19127204 17.57041138 5.12659388 19.62021837 4 23 C3.87625 23.9075 3.7525 24.815 3.625 25.75 C2.89798636 29.53047094 1.60570461 32.5093378 0 36 C-0.33 35.01 -0.66 34.02 -1 33 C-1.66 33 -2.32 33 -3 33 C-2.67 33.99 -2.34 34.98 -2 36 C-2.33 36.33 -2.66 36.66 -3 37 C-2.67 37.66 -2.34 38.32 -2 39 C-2.66 39 -3.32 39 -4 39 C-4 39.99 -4 40.98 -4 42 C-3.01 42.33 -2.02 42.66 -1 43 C-1.721875 43.2475 -2.44375 43.495 -3.1875 43.75 C-6.04932895 44.86119062 -6.04932895 44.86119062 -8.1875 46.875 C-17.13154127 53.63272007 -27.17203623 54.26335281 -38 53 C-45.05979215 51.40121755 -49.8312554 47.94401658 -55 43 C-54.67 41.68 -54.34 40.36 -54 39 C-52.68 39 -51.36 39 -50 39 C-49.67 39.66 -49.34 40.32 -49 41 C-46.97536745 41.65213292 -46.97536745 41.65213292 -45 42 C-45 42.66 -45 43.32 -45 44 C-41.85434954 44.08845016 -38.70902625 44.14086835 -35.5625 44.1875 C-34.68400391 44.21263672 -33.80550781 44.23777344 -32.90039062 44.26367188 C-25.09938419 44.35002988 -18.1130894 43.1349951 -12 38 C-11.34 38 -10.68 38 -10 38 C-9.7525 37.484375 -9.505 36.96875 -9.25 36.4375 C-7.90560781 33.81593523 -6.42192479 31.30432796 -4.90234375 28.78125 C-3.10747557 25.2381336 -2.89481226 22.015502 -3.0078125 18.0859375 C-3.02457031 17.16039063 -3.04132813 16.23484375 -3.05859375 15.28125 C-3.10304742 13.3357482 -3.15519416 11.3904077 -3.21484375 9.4453125 C-3.22902344 8.52234375 -3.24320313 7.599375 -3.2578125 6.6484375 C-3.2798877 5.80458496 -3.30196289 4.96073242 -3.32470703 4.09130859 C-3.21755371 3.40117676 -3.11040039 2.71104492 -3 2 C-2.01 1.34 -1.02 0.68 0 0 Z " fill="#628AD9" transform="translate(92,51)"/>
<path d="M0 0 C3.86763701 4.57084374 5.13489248 8.70814986 4.8125 14.625 C4.64273429 20.2272683 6.58254341 24.36197264 9.00390625 29.3359375 C10.08972811 32.2399787 10.00821058 33.16252112 9 36 C9 36.99 9 37.98 9 39 C1.89519555 41.02370454 -2.29295907 41.229316 -9 38 C-9 37.34 -9 36.68 -9 36 C-9.33 35.34 -9.66 34.68 -10 34 C-9.07868804 31.84928462 -8.08651359 29.72875581 -7.0625 27.625 C-4.32645177 21.72763475 -3.65049054 17.26595769 -4.0546875 10.7109375 C-3.96730478 6.37925129 -2.24128936 3.64209522 0 0 Z " fill="#0B0C0E" transform="translate(62,36)"/>
<path d="M0 0 C3.3205794 0.06776693 5.21419873 0.27254128 7.68359375 2.55859375 C8.11800781 3.03425781 8.55242187 3.50992188 9 4 C3.68938603 9.06475222 -1.2220956 13.13821814 -8 16 C-8.78375 16.4125 -9.5675 16.825 -10.375 17.25 C-14.53274692 18.43792769 -18.70547149 18.15010003 -23 18 C-23 17.01 -23 16.02 -23 15 C-22.34 15 -21.68 15 -21 15 C-21 14.01 -21 13.02 -21 12 C-21.33 12.66 -21.66 13.32 -22 14 C-22.66 14 -23.32 14 -24 14 C-24 15.32 -24 16.64 -24 18 C-24.99 18 -25.98 18 -27 18 C-27.33 16.02 -27.66 14.04 -28 12 C-28.66 12 -29.32 12 -30 12 C-30.33 13.32 -30.66 14.64 -31 16 C-30.01 16 -29.02 16 -28 16 C-28 16.66 -28 17.32 -28 18 C-33.98993047 18.3152595 -37.63560356 17.68219822 -43 15 C-43 14.34 -43 13.68 -43 13 C-42.34 13 -41.68 13 -41 13 C-41 13.66 -41 14.32 -41 15 C-40.34 15 -39.68 15 -39 15 C-39.33 12.69 -39.66 10.38 -40 8 C-39.01386719 8.15726563 -38.02773438 8.31453125 -37.01171875 8.4765625 C-25.46619701 10.10645027 -14.23404526 10.2826126 -4 4 C-3.29617187 3.28199219 -2.59234375 2.56398438 -1.8671875 1.82421875 C-1.25101563 1.22222656 -0.63484375 0.62023437 0 0 Z " fill="#ECEDF0" transform="translate(87,94)"/>
<path d="M0 0 C-0.33 1.11375 -0.66 2.2275 -1 3.375 C-1.84701636 6.67024171 -2.03601705 9.48290741 -1.875 12.875 C-1.71685503 18.53307547 -3.59602134 22.95593764 -6 28 C-7.65 28 -9.3 28 -11 28 C-11.33 26.02 -11.66 24.04 -12 22 C-12.66 22 -13.32 22 -14 22 C-14 23.65 -14 25.3 -14 27 C-16.97 27 -19.94 27 -23 27 C-22.61397183 20.63053521 -21.97741972 17.00385061 -18 12 C-16.35 12.33 -14.7 12.66 -13 13 C-13.66 11.68 -14.32 10.36 -15 9 C-14.4225 8.59007812 -13.845 8.18015625 -13.25 7.7578125 C-12.5075 7.21898437 -11.765 6.68015625 -11 6.125 C-10.2575 5.59132813 -9.515 5.05765625 -8.75 4.5078125 C-7.88375 3.76144531 -7.88375 3.76144531 -7 3 C-7 2.34 -7 1.68 -7 1 C-2.25 0 -2.25 0 0 0 Z " fill="#EBF1FC" transform="translate(61,38)"/>
<path d="M0 0 C0.66 0 1.32 0 2 0 C5 4.38461538 5 4.38461538 5 7 C5.66 6.67 6.32 6.34 7 6 C6.67 4.68 6.34 3.36 6 2 C9.37503669 3.1858237 11.64722731 4.27573689 14 7 C13.01 7.99 12.02 8.98 11 10 C12.98 9.67 14.96 9.34 17 9 C20.97741972 14.00385061 21.61397183 17.63053521 22 24 C19.03 24 16.06 24 13 24 C12.34 20.7 11.68 17.4 11 14 C10.34 14 9.68 14 9 14 C9.33 14.99 9.66 15.98 10 17 C10.12781786 19.67394964 10.04391871 22.32095857 10 25 C8.35 25 6.7 25 5 25 C1.70596215 18.35310219 0.59917137 12.98474488 0.95703125 5.56640625 C1.14410342 2.87886891 1.14410342 2.87886891 0 0 Z " fill="#EBF1FB" transform="translate(65,41)"/>
<path d="M0 0 C4.37841185 3.58669902 4.32958641 8.67478297 5 14 C5.19127204 17.57041138 5.12659388 19.62021837 4 23 C3.87625 23.9075 3.7525 24.815 3.625 25.75 C2.89798636 29.53047094 1.60570461 32.5093378 0 36 C-0.33 35.01 -0.66 34.02 -1 33 C-1.66 33 -2.32 33 -3 33 C-2.67 33.99 -2.34 34.98 -2 36 C-2.33 36.33 -2.66 36.66 -3 37 C-2.67 37.66 -2.34 38.32 -2 39 C-2.66 39 -3.32 39 -4 39 C-4 39.99 -4 40.98 -4 42 C-3.01 42.33 -2.02 42.66 -1 43 C-1.721875 43.2475 -2.44375 43.495 -3.1875 43.75 C-6.06628119 44.87477784 -6.06628119 44.87477784 -8.3125 46.9375 C-11.72534458 49.55665979 -14.93426732 50.62178553 -19 52 C-19 51.34 -19 50.68 -19 50 C-18.04287109 49.60167969 -18.04287109 49.60167969 -17.06640625 49.1953125 C-16.24011719 48.84210938 -15.41382812 48.48890625 -14.5625 48.125 C-13.73878906 47.77695313 -12.91507812 47.42890625 -12.06640625 47.0703125 C-9.84253285 46.1755063 -9.84253285 46.1755063 -9 44 C-8.34 44 -7.68 44 -7 44 C-7.66 42.68 -8.32 41.36 -9 40 C-9.598125 40.350625 -10.19625 40.70125 -10.8125 41.0625 C-13 42 -13 42 -16 41 C-12.25 38 -12.25 38 -10 38 C-9.7525 37.484375 -9.505 36.96875 -9.25 36.4375 C-7.90560781 33.81593523 -6.42192479 31.30432796 -4.90234375 28.78125 C-3.10747557 25.2381336 -2.89481226 22.015502 -3.0078125 18.0859375 C-3.02457031 17.16039063 -3.04132813 16.23484375 -3.05859375 15.28125 C-3.10304742 13.3357482 -3.15519416 11.3904077 -3.21484375 9.4453125 C-3.22902344 8.52234375 -3.24320313 7.599375 -3.2578125 6.6484375 C-3.2798877 5.80458496 -3.30196289 4.96073242 -3.32470703 4.09130859 C-3.16397705 3.05611084 -3.16397705 3.05611084 -3 2 C-2.01 1.34 -1.02 0.68 0 0 Z " fill="#658DDE" transform="translate(92,51)"/>
<path d="M0 0 C-2.64 1.98 -5.28 3.96 -8 6 C-7.67 7.32 -7.34 8.64 -7 10 C-8.65 10 -10.3 10 -12 10 C-14.53309233 14.64203897 -16.46515599 18.65155992 -17 24 C-14.03 24 -11.06 24 -8 24 C-8 22.35 -8 20.7 -8 19 C-7.01 18.67 -6.02 18.34 -5 18 C-5 20.31 -5 22.62 -5 25 C-3.68 25 -2.36 25 -1 25 C-1.33 25.99 -1.66 26.98 -2 28 C-2.99 28 -3.98 28 -5 28 C-5 30.31 -5 32.62 -5 35 C-5.66 35 -6.32 35 -7 35 C-7.33 32.69 -7.66 30.38 -8 28 C-10.97 28 -13.94 28 -17 28 C-16.54857225 29.77260631 -16.08859477 31.5430368 -15.625 33.3125 C-15.36976562 34.29863281 -15.11453125 35.28476563 -14.8515625 36.30078125 C-14.08086826 39.1805816 -14.08086826 39.1805816 -12 42 C-9.525 41.505 -9.525 41.505 -7 41 C-7.99 43.31 -8.98 45.62 -10 48 C-15.26256225 44.49162517 -17.66812069 40.09330907 -19.5859375 34.19921875 C-21.12302937 26.03523081 -21.33177413 17.02139178 -16.62890625 9.93359375 C-6.44952681 -2.14984227 -6.44952681 -2.14984227 0 0 Z " fill="#F1F5FD" transform="translate(55,41)"/>
<path d="M0 0 C0.99 0 1.98 0 3 0 C3 2.64 3 5.28 3 8 C4.9451 5.08235 5.45276317 3.37462715 6 0 C8.97 0 11.94 0 15 0 C14.53328373 5.41390868 13.75702189 9.20517932 11 14 C9.68 14 8.36 14 7 14 C7.2475 14.928125 7.2475 14.928125 7.5 15.875 C8 18 8 18 8 20 C5.03 20.66 2.06 21.32 -1 22 C-1 21.34 -1 20.68 -1 20 C-1.66 20 -2.32 20 -3 20 C-3.495 20.66 -3.99 21.32 -4.5 22 C-4.995 22.66 -5.49 23.32 -6 24 C-6.66 24 -7.32 24 -8 24 C-8 23.34 -8 22.68 -8 22 C-9.65 21.67 -11.3 21.34 -13 21 C-12.505 19.515 -12.505 19.515 -12 18 C-11.030625 18.185625 -10.06125 18.37125 -9.0625 18.5625 C-8.051875 18.706875 -7.04125 18.85125 -6 19 C-5.67 18.67 -5.34 18.34 -5 18 C-5.66 17.67 -6.32 17.34 -7 17 C-4.95301586 14.95301586 -0.69588759 15.29954307 2 15 C1.505 14.05125 1.01 13.1025 0.5 12.125 C-1 9 -1 9 -1 7 C-2.65 7 -4.3 7 -6 7 C-6 6.67 -6 6.34 -6 6 C-4.35 5.67 -2.7 5.34 -1 5 C-1.33 4.01 -1.66 3.02 -2 2 C-1.34 2 -0.68 2 0 2 C0 1.34 0 0.68 0 0 Z " fill="#8192B6" transform="translate(72,69)"/>
<path d="M0 0 C1.9140625 0.70703125 1.9140625 0.70703125 3.9765625 4.01953125 C5.13857139 8.59009954 5.13857139 8.59009954 3.9140625 11.70703125 C3.9140625 12.69703125 3.9140625 13.68703125 3.9140625 14.70703125 C-3.19074195 16.73073579 -7.37889657 16.93634725 -14.0859375 13.70703125 C-13.5234375 11.83203125 -13.5234375 11.83203125 -12.0859375 9.70703125 C-8.4609375 8.45703125 -8.4609375 8.45703125 -5.0859375 7.70703125 C-5.0859375 7.04703125 -5.0859375 6.38703125 -5.0859375 5.70703125 C-6.4059375 5.04703125 -7.7259375 4.38703125 -9.0859375 3.70703125 C-8.7559375 2.71703125 -8.4259375 1.72703125 -8.0859375 0.70703125 C-5.35130843 -0.66028328 -2.97619418 -0.40584466 0 0 Z " fill="#2B2C2D" transform="translate(67.0859375,60.29296875)"/>
<path d="M0 0 C3.96 0 7.92 0 12 0 C13.32 2.97 14.64 5.94 16 9 C13.36 9.33 10.72 9.66 8 10 C10.64 10 13.28 10 16 10 C16 10.33 16 10.66 16 11 C12.04 11.66 8.08 12.32 4 13 C3.67 12.34 3.34 11.68 3 11 C0.19019327 10.30772968 0.19019327 10.30772968 -3.0625 9.875 C-4.71958984 9.62363281 -4.71958984 9.62363281 -6.41015625 9.3671875 C-7.26480469 9.24601562 -8.11945312 9.12484375 -9 9 C-8.67 8.01 -8.34 7.02 -8 6 C-6.15234375 5.26953125 -6.15234375 5.26953125 -3.9375 4.8125 C-2.83728516 4.57466797 -2.83728516 4.57466797 -1.71484375 4.33203125 C-1.14894531 4.22246094 -0.58304688 4.11289063 0 4 C0 2.68 0 1.36 0 0 Z " fill="#F5F5F5" transform="translate(59,76)"/>
<path d="M0 0 C1.65 0.33 3.3 0.66 5 1 C4.84789062 1.6703125 4.69578125 2.340625 4.5390625 3.03125 C3.9052083 6.52204124 3.62274166 9.9608335 3.375 13.5 C3.27960937 14.7890625 3.18421875 16.078125 3.0859375 17.40625 C2.92764653 24.02569072 4.98968917 29.19440054 8 35 C6.68 35.99 5.36 36.98 4 38 C2 35 2 35 2 31 C1.01 30.67 0.02 30.34 -1 30 C-1.2165625 28.1746875 -1.2165625 28.1746875 -1.4375 26.3125 C-1.73253161 23.922744 -2.07947656 21.61144794 -2.5625 19.25 C-3 17 -3 17 -3 13 C-2.01 12.67 -1.02 12.34 0 12 C-0.66 10.68 -1.32 9.36 -2 8 C-1.67 7.67 -1.34 7.34 -1 7 C-1.33 6.01 -1.66 5.02 -2 4 C-0.68 3.67 0.64 3.34 2 3 C1.34 2.67 0.68 2.34 0 2 C0 1.34 0 0.68 0 0 Z " fill="#3E5B98" transform="translate(31,52)"/>
<path d="M0 0 C4.75 1.875 4.75 1.875 7 3 C6.67 2.01 6.34 1.02 6 0 C9.79588866 0.54226981 11.47211993 2.20127563 14 5 C14 4.34 14 3.68 14 3 C14.99 3 15.98 3 17 3 C17 3.66 17 4.32 17 5 C18.65 3.35 20.3 1.7 22 0 C22.99 0.33 23.98 0.66 25 1 C24.67 1.66 24.34 2.32 24 3 C24.556875 2.67 25.11375 2.34 25.6875 2 C28.30284522 0.8690399 30.1806646 0.84337026 33 1 C29.14341438 5.86265143 23.92830752 7.44523901 17.953125 8.2890625 C10.73422542 8.60669408 3.92473363 6.01352924 -2 2 C-1.34 1.34 -0.68 0.68 0 0 Z " fill="#E8EEFB" transform="translate(47,88)"/>
<path d="M0 0 C2.97 0 5.94 0 9 0 C9.55582752 1.95436127 10.09428713 3.91366982 10.625 5.875 C10.92664062 6.96554688 11.22828125 8.05609375 11.5390625 9.1796875 C11.69117188 10.11039063 11.84328125 11.04109375 12 12 C9.64046906 14.35953094 8.22104383 14.49141413 5 15 C1.02258028 9.99614939 0.38602817 6.36946479 0 0 Z " fill="#6A99FB" transform="translate(38,69)"/>
<path d="M0 0 C2.81467751 2.06409684 3.6916176 4.33006632 4.2890625 7.734375 C4.484375 9.94791667 4.6796875 12.16145833 4.875 14.375 C1.905 14.375 -1.065 14.375 -4.125 14.375 C-5.57684478 9.83798506 -6.36009196 6.19438524 -6.125 1.375 C-2.73486547 -0.8043722 -2.73486547 -0.8043722 0 0 Z " fill="#6F9DFB" transform="translate(82.125,50.625)"/>
<path d="M0 0 C2.4375 0.75 2.4375 0.75 5 2 C6.80888603 6.48289146 5.126739 10.49304401 4 15 C1.03 15 -1.94 15 -5 15 C-4.61397183 8.63053521 -3.97741972 5.00385061 0 0 Z " fill="#6694F4" transform="translate(43,50)"/>
<path d="M0 0 C2.97 0 5.94 0 9 0 C8.53328373 5.41390868 7.75702189 9.20517932 5 14 C1 14 1 14 -2 12 C-1.44687265 7.97007218 -0.8441938 3.97977076 0 0 Z " fill="#6A9AFE" transform="translate(78,69)"/>
<path d="M0 0 C4.20826906 0.26861292 6.2048969 0.90452762 9 4 C7.58829091 5.29708314 6.17041804 6.58745978 4.75 7.875 C3.96109375 8.59429687 3.1721875 9.31359375 2.359375 10.0546875 C0.27973832 11.76935483 -1.54419267 12.92980873 -4 14 C-4.433125 12.2984375 -4.433125 12.2984375 -4.875 10.5625 C-5.24625 9.386875 -5.6175 8.21125 -6 7 C-6.66 6.67 -7.32 6.34 -8 6 C-7.05125 5.38125 -6.1025 4.7625 -5.125 4.125 C-2.05554891 2.18029031 -2.05554891 2.18029031 0 0 Z " fill="#DEDEDF" transform="translate(87,94)"/>
<path d="M0 0 C3 1 3 1 4 3 C6.02463255 3.65213292 6.02463255 3.65213292 8 4 C8 4.66 8 5.32 8 6 C8.5775 6.144375 9.155 6.28875 9.75 6.4375 C11.83333333 6.95833333 13.91666667 7.47916667 16 8 C15.3125 9.9375 15.3125 9.9375 14 12 C11.8125 13 11.8125 13 9 13 C4.73352226 10.97903686 0.87849434 8.83799245 -2 5 C-1.80984746 2.78155374 -1.58477845 1.58477845 0 0 Z " fill="#6990E0" transform="translate(39,89)"/>
<path d="M0 0 C-0.33 1.175625 -0.66 2.35125 -1 3.5625 C-1.9969533 7.5011676 -2.16869203 10.95139129 -2 15 C-4.97 14.505 -4.97 14.505 -8 14 C-7.34 11.69 -6.68 9.38 -6 7 C-7.70840281 8.63412443 -8.93453047 9.86906094 -10 12 C-11.32 11.67 -12.64 11.34 -14 11 C-14 10.01 -14 9.02 -14 8 C-12.46875 6.68359375 -12.46875 6.68359375 -10.5 5.4375 C-8.56698031 4.24822744 -8.56698031 4.24822744 -7 3 C-7 2.34 -7 1.68 -7 1 C-2.25 0 -2.25 0 0 0 Z " fill="#E8EFFB" transform="translate(61,38)"/>
<path d="M0 0 C3.50079281 1.45154824 5.75686563 3.51785487 8.5625 6.0625 C8.2325 7.0525 7.9025 8.0425 7.5625 9.0625 C5.5625 9.0625 3.5625 9.0625 1.5625 9.0625 C1.2325 9.7225 0.9025 10.3825 0.5625 11.0625 C-2.0775 8.7525 -4.7175 6.4425 -7.4375 4.0625 C-3.21625399 0.08246805 -3.21625399 0.08246805 0 0 Z " fill="#F6F7F7" transform="translate(36.4375,93.9375)"/>
<path d="M0 0 C1.42331668 4.26995005 1.42331668 7.73004995 0 12 C-0.12375 12.9075 -0.2475 13.815 -0.375 14.75 C-1.10201364 18.53047094 -2.39429539 21.5093378 -4 25 C-4.33 24.01 -4.66 23.02 -5 22 C-5.66 22 -6.32 22 -7 22 C-6.67 22.99 -6.34 23.98 -6 25 C-6.99 24.67 -7.98 24.34 -9 24 C-8.34 22.02 -7.68 20.04 -7 18 C-6.34 18 -5.68 18 -5 18 C-5 16.68 -5 15.36 -5 14 C-3.68 14.33 -2.36 14.66 -1 15 C-1 14.34 -1 13.68 -1 13 C-1.99 13 -2.98 13 -4 13 C-4 9.04 -4 5.08 -4 1 C-2.68 0.67 -1.36 0.34 0 0 Z " fill="#223152" transform="translate(96,62)"/>
<path d="M0 0 C3.81926912 4.51368168 5.34720628 9.09749318 5 15 C2.03 15 -0.94 15 -4 15 C-4.50610724 8.92671312 -3.04157942 5.22771463 0 0 Z " fill="#36383C" transform="translate(62,36)"/>
<path d="M0 0 C3.46941546 0.45822468 6.67395049 0.89131683 10 2 C9.67 3.98 9.34 5.96 9 8 C9.99 8 10.98 8 12 8 C12 8.66 12 9.32 12 10 C6.01006953 10.3152595 2.36439644 9.68219822 -3 7 C-3 6.34 -3 5.68 -3 5 C-2.34 5 -1.68 5 -1 5 C-1 5.66 -1 6.32 -1 7 C-0.34 7 0.32 7 1 7 C0.67 4.69 0.34 2.38 0 0 Z " fill="#D2D4D6" transform="translate(47,102)"/>
<path d="M0 0 C3 1 3 1 5 3 C4.67 3.66 4.34 4.32 4 5 C5.65 5.33 7.3 5.66 9 6 C9.33 7.98 9.66 9.96 10 12 C4.76274165 13.04745167 4.76274165 13.04745167 2 13 C-0.5 11.1875 -0.5 11.1875 -2 9 C-2 8.34 -2 7.68 -2 7 C-1.34 7 -0.68 7 0 7 C0 4.69 0 2.38 0 0 Z " fill="#F4F4F4" transform="translate(50,69)"/>
<path d="M0 0 C0.69416016 -0.020625 1.38832031 -0.04125 2.10351562 -0.0625 C4.12109375 -0.078125 4.12109375 -0.078125 7.5625 0.25 C8.2225 1.24 8.8825 2.23 9.5625 3.25 C2.85545907 6.479316 -1.33269555 6.27370454 -8.4375 4.25 C-8.4375 -1.41520638 -4.6024759 0.03399798 0 0 Z " fill="#040404" transform="translate(62.4375,70.75)"/>
<path d="M0 0 C1.5 1.375 1.5 1.375 3 3 C3 3.66 3 4.32 3 5 C2.34 5 1.68 5 1 5 C0.67 5.99 0.34 6.98 0 8 C-3.21284338 9.88579937 -5.24633583 11 -9 11 C-9.33 9.35 -9.66 7.7 -10 6 C-3.375 2 -3.375 2 0 2 C0 1.34 0 0.68 0 0 Z " fill="#3E5B98" transform="translate(82,90)"/>
<path d="M0 0 C0.99 0.33 1.98 0.66 3 1 C4.28317892 4.84953676 4.06643637 7.94738135 4 12 C2.35 12 0.7 12 -1 12 C-1.99 8.7 -2.98 5.4 -4 2 C-2.68 1.34 -1.36 0.68 0 0 Z " fill="#719DF9" transform="translate(71,54)"/>
<path d="M0 0 C1.79158489 -0.02696365 3.58328473 -0.04637917 5.375 -0.0625 C6.37273438 -0.07410156 7.37046875 -0.08570312 8.3984375 -0.09765625 C11 0 11 0 13 1 C13 2.32 13 3.64 13 5 C13.66 5 14.32 5 15 5 C14.67 3.68 14.34 2.36 14 1 C14.66 1 15.32 1 16 1 C16 2.65 16 4.3 16 6 C14.68 6 13.36 6 12 6 C11.67 5.34 11.34 4.68 11 4 C10.01 4.495 10.01 4.495 9 5 C9 4.01 9 3.02 9 2 C8.67 2.66 8.34 3.32 8 4 C7.34 4 6.68 4 6 4 C6 5.32 6 6.64 6 8 C5.01 8 4.02 8 3 8 C2.67 6.02 2.34 4.04 2 2 C1.34 2 0.68 2 0 2 C0 1.34 0 0.68 0 0 Z " fill="#9FA1A4" transform="translate(57,104)"/>
<path d="M0 0 C3.3 0 6.6 0 10 0 C10 0.33 10 0.66 10 1 C7.03 1 4.06 1 1 1 C1.45142775 2.77260631 1.91140523 4.5430368 2.375 6.3125 C2.63023438 7.29863281 2.88546875 8.28476563 3.1484375 9.30078125 C3.91913174 12.1805816 3.91913174 12.1805816 6 15 C7.65 14.67 9.3 14.34 11 14 C10.01 16.31 9.02 18.62 8 21 C3.32562646 17.88375098 0.55813548 14.37838333 -1 9 C-1.02948045 5.83085172 -0.58880653 3.1403015 0 0 Z " fill="#F0F5FD" transform="translate(37,68)"/>
<path d="M0 0 C1.98 0.66 3.96 1.32 6 2 C5.01 5.3 4.02 8.6 3 12 C1.35 12 -0.3 12 -2 12 C-1.85962479 10.18706911 -1.71255111 8.3746557 -1.5625 6.5625 C-1.48128906 5.55316406 -1.40007813 4.54382812 -1.31640625 3.50390625 C-1 1 -1 1 0 0 Z " fill="#6C9AF9" transform="translate(52,54)"/>
<path d="M0 0 C0.99 0.33 1.98 0.66 3 1 C2.67 1.66 2.34 2.32 2 3 C2.556875 2.67 3.11375 2.34 3.6875 2 C6.30284522 0.8690399 8.1806646 0.84337026 11 1 C8.20103836 4.10995738 6.07310397 5.93745114 2 7 C-1.34077264 7.15395266 -4.65853814 7.11678896 -8 7 C-7 5 -7 5 -4.5625 4.0625 C-1.70136041 3.15452711 -1.70136041 3.15452711 0 0 Z " fill="#F3F7FD" transform="translate(69,88)"/>
<path d="M0 0 C3.35474101 0.59114379 5.12827765 1.71225441 7.625 4 C10.12374312 6.27217224 10.12374312 6.27217224 13 8 C12 10 12 10 10 11 C7.875 10.0625 7.875 10.0625 6 9 C6 8.34 6 7.68 6 7 C5.195625 6.855625 4.39125 6.71125 3.5625 6.5625 C1 6 1 6 0 5 C-0.04063832 3.33382885 -0.042721 1.66611905 0 0 Z " fill="#14151A" transform="translate(27,98)"/>
<path d="M0 0 C0 1.32 0 2.64 0 4 C-12.06153846 5.96923077 -12.06153846 5.96923077 -16 4 C-15.34 2.68 -14.68 1.36 -14 0 C-13.01 0 -12.02 0 -11 0 C-10.67 0.66 -10.34 1.32 -10 2 C-9.34 1.34 -8.68 0.68 -8 0 C-7.67 0.99 -7.34 1.98 -7 3 C-6.67 2.01 -6.34 1.02 -6 0 C-3.42525708 -0.99667468 -2.51072708 -1.25536354 0 0 Z " fill="#304675" transform="translate(71,98)"/>
<path d="M0 0 C0.99 0 1.98 0 3 0 C2.67 1.98 2.34 3.96 2 6 C0.35 6.33 -1.3 6.66 -3 7 C-3 7.66 -3 8.32 -3 9 C-5.375 10.0625 -5.375 10.0625 -8 11 C-8.66 10.67 -9.32 10.34 -10 10 C-10 9.34 -10 8.68 -10 8 C-8.3203125 6.5625 -8.3203125 6.5625 -6.125 5 C-3.90197743 3.40643543 -1.93765275 1.93765275 0 0 Z " fill="#1C1D20" transform="translate(95,98)"/>
<path d="M0 0 C0 2.31 0 4.62 0 7 C-0.66 7 -1.32 7 -2 7 C-2 6.34 -2 5.68 -2 5 C-2.66 5 -3.32 5 -4 5 C-4.33 5.66 -4.66 6.32 -5 7 C-7.5 5.6875 -7.5 5.6875 -10 4 C-10 3.01 -10 2.02 -10 1 C-6.21674266 -1.08731439 -4.20803567 -1.40267856 0 0 Z " fill="#BDBDBE" transform="translate(48,102)"/>
<path d="M0 0 C0.66 0.33 1.32 0.66 2 1 C0.02 1.99 0.02 1.99 -2 3 C-1.67 5.31 -1.34 7.62 -1 10 C-1.99 9.67 -2.98 9.34 -4 9 C-4.6875 6.9375 -4.6875 6.9375 -5 5 C-6.32 5 -7.64 5 -9 5 C-8.67 5.99 -8.34 6.98 -8 8 C-8.66 8 -9.32 8 -10 8 C-12 6 -12 6 -13 4 C-13.66 3.67 -14.32 3.34 -15 3 C-13.75283203 2.80083984 -13.75283203 2.80083984 -12.48046875 2.59765625 C-11.39378906 2.42105469 -10.30710937 2.24445313 -9.1875 2.0625 C-8.10855469 1.88847656 -7.02960938 1.71445313 -5.91796875 1.53515625 C-2.95066644 1.06128079 -2.95066644 1.06128079 0 0 Z " fill="#6694F0" transform="translate(74,93)"/>
<path d="M0 0 C2.31 0 4.62 0 7 0 C7.33 2.31 7.66 4.62 8 7 C5.03 7 2.06 7 -1 7 C-0.67 4.69 -0.34 2.38 0 0 Z " fill="#4262A5" transform="translate(79,58)"/>
<path d="M0 0 C1.65 0.33 3.3 0.66 5 1 C4.05066101 4.35433109 3.10251165 7.69246505 2 11 C0.96621246 14.05824622 0.96621246 14.05824622 2 17 C0.35 17 -1.3 17 -3 17 C-3 15.68 -3 14.36 -3 13 C-2.01 12.67 -1.02 12.34 0 12 C-0.66 10.68 -1.32 9.36 -2 8 C-1.67 7.67 -1.34 7.34 -1 7 C-1.33 6.01 -1.66 5.02 -2 4 C-0.68 3.67 0.64 3.34 2 3 C1.34 2.67 0.68 2.34 0 2 C0 1.34 0 0.68 0 0 Z " fill="#233355" transform="translate(31,52)"/>
<path d="M0 0 C3.97110791 -0.39711079 6.3636204 0.04526055 9.75 2 C14.44359688 4.58329751 18.76332482 4.3863121 24 4 C24 4.33 24 4.66 24 5 C20.04 5.66 16.08 6.32 12 7 C11.67 6.34 11.34 5.68 11 5 C8.19019327 4.30772968 8.19019327 4.30772968 4.9375 3.875 C3.28041016 3.62363281 3.28041016 3.62363281 1.58984375 3.3671875 C0.73519531 3.24601562 -0.11945312 3.12484375 -1 3 C-0.67 2.01 -0.34 1.02 0 0 Z " fill="#ECECEC" transform="translate(51,82)"/>
<path d="M0 0 C0.64066406 0.40992187 1.28132813 0.81984375 1.94140625 1.2421875 C6.91124762 4.33815426 11.26713518 6.75372504 17 8 C17 8.33 17 8.66 17 9 C12.71 9 8.42 9 4 9 C4 8.01 4 7.02 4 6 C2.68 6 1.36 6 0 6 C0 4.02 0 2.04 0 0 Z " fill="#6792EA" transform="translate(42,87)"/>
<path d="M0 0 C1.98 0 3.96 0 6 0 C6 0.99 6 1.98 6 3 C6.99 3 7.98 3 9 3 C9 3.99 9 4.98 9 6 C6.03 6 3.06 6 0 6 C0 4.02 0 2.04 0 0 Z " fill="#1C263D" transform="translate(38,59)"/>
<path d="M0 0 C2.0343459 1.41519715 2.90410393 2.54982123 3.421875 4.98046875 C3.66273952 6.98176954 3.83532741 8.9909944 4 11 C2.35 10.67 0.7 10.34 -1 10 C-1.66 7.36 -2.32 4.72 -3 2 C-2.01 1.34 -1.02 0.68 0 0 Z " fill="#364B78" transform="translate(92,51)"/>
<path d="M0 0 C0 1.32 0 2.64 0 4 C-2 5.75 -2 5.75 -4 7 C-4 6.34 -4 5.68 -4 5 C-5.32 4.34 -6.64 3.68 -8 3 C-7.67 2.01 -7.34 1.02 -7 0 C-4.3333581 -1.33332095 -2.83319697 -0.67102033 0 0 Z " fill="#A2A2A2" transform="translate(66,61)"/>
<path d="M0 0 C1.32 0.33 2.64 0.66 4 1 C4 2.32 4 3.64 4 5 C4.99 4.67 5.98 4.34 7 4 C6.34 5.65 5.68 7.3 5 9 C3.0625 8.6875 3.0625 8.6875 1 8 C0.67 7.01 0.34 6.02 0 5 C-0.66 5 -1.32 5 -2 5 C-1.34 3.35 -0.68 1.7 0 0 Z " fill="#C4D75F" transform="translate(80,32)"/>
<path d="M0 0 C2.50298434 2.93828597 3.46930939 5.17902761 4 9 C1.69 9 -0.62 9 -3 9 C-2.44271087 5.65626525 -1.64826111 2.96687001 0 0 Z " fill="#0E1016" transform="translate(62,36)"/>
<path d="M0 0 C0.99 0 1.98 0 3 0 C3.433125 1.11375 3.433125 1.11375 3.875 2.25 C4.82302644 4.56739797 5.84845911 6.77917115 7 9 C5.68 9.99 4.36 10.98 3 12 C1.375 8.75 1.375 8.75 0 5 C0.8125 2.5625 0.8125 2.5625 2 1 C1.34 0.67 0.68 0.34 0 0 Z " fill="#354E81" transform="translate(32,78)"/>
<path d="M0 0 C1 1 2 2 3 3 C4.299375 4.2065625 4.299375 4.2065625 5.625 5.4375 C7.99015809 7.98938109 8.54926987 8.7126749 9 12 C8.66015625 14.359375 8.66015625 14.359375 8.0625 16.75 C7.86785156 17.54921875 7.67320313 18.3484375 7.47265625 19.171875 C7.31667969 19.77515625 7.16070313 20.3784375 7 21 C6.67 21 6.34 21 6 21 C6.05800781 20.26394531 6.11601562 19.52789062 6.17578125 18.76953125 C6.63890801 12.42055596 6.63890801 12.42055596 3.5625 7.125 C2.716875 6.42375 1.87125 5.7225 1 5 C0.1875 2.1875 0.1875 2.1875 0 0 Z " fill="#81AAF7" transform="translate(6,74)"/>
<path d="M0 0 C0.66 0 1.32 0 2 0 C6.06153846 6.27692308 6.06153846 6.27692308 5.75 9.9375 C5.5025 10.618125 5.255 11.29875 5 12 C3.68 12 2.36 12 1 12 C1.01740234 11.07767578 1.01740234 11.07767578 1.03515625 10.13671875 C1.04417969 9.32847656 1.05320312 8.52023438 1.0625 7.6875 C1.07410156 6.88699219 1.08570312 6.08648437 1.09765625 5.26171875 C1.09657855 2.83138666 1.09657855 2.83138666 0 0 Z " fill="#7FA4ED" transform="translate(65,41)"/>
<path d="M0 0 C1.17571451 3.67410785 1.07366746 7.16929183 1 11 C-1.97 10.505 -1.97 10.505 -5 10 C-3.84414715 6.08788267 -2.64465038 3.1254959 0 0 Z " fill="#7EA3EE" transform="translate(58,42)"/>
<path d="M0 0 C0.66 0 1.32 0 2 0 C2.33 1.98 2.66 3.96 3 6 C3.99 6 4.98 6 6 6 C6 4.02 6 2.04 6 0 C6.99 0 7.98 0 9 0 C9 0.99 9 1.98 9 3 C8.34 3 7.68 3 7 3 C7 3.99 7 4.98 7 6 C8.32 6.33 9.64 6.66 11 7 C7.37 7 3.74 7 0 7 C0.66 6.67 1.32 6.34 2 6 C2 5.34 2 4.68 2 4 C0.68 4.33 -0.64 4.66 -2 5 C-1.34 3.35 -0.68 1.7 0 0 Z " fill="#6E727B" transform="translate(57,106)"/>
<path d="M0 0 C2.31 0 4.62 0 7 0 C6.67 1.32 6.34 2.64 6 4 C6.66 4.33 7.32 4.66 8 5 C5.525 6.485 5.525 6.485 3 8 C2.896875 7.360625 2.79375 6.72125 2.6875 6.0625 C2.460625 5.381875 2.23375 4.70125 2 4 C1.01 3.67 0.02 3.34 -1 3 C-0.67 2.01 -0.34 1.02 0 0 Z " fill="#E8E8E8" transform="translate(59,76)"/>
<path d="M0 0 C0.33 0.66 0.66 1.32 1 2 C0.67 2.66 0.34 3.32 0 4 C1.299375 4.12375 2.59875 4.2475 3.9375 4.375 C6.15234375 4.5859375 6.15234375 4.5859375 8 5 C8.33 5.66 8.66 6.32 9 7 C7.87851562 6.96519531 7.87851562 6.96519531 6.734375 6.9296875 C5.74953125 6.91164063 4.7646875 6.89359375 3.75 6.875 C2.77546875 6.85179688 1.8009375 6.82859375 0.796875 6.8046875 C-2.0196498 7.00137219 -3.60949036 7.55431084 -6 9 C-5.34 7.02 -4.68 5.04 -4 3 C-3.34 3 -2.68 3 -2 3 C-2 2.34 -2 1.68 -2 1 C-1.34 0.67 -0.68 0.34 0 0 Z " fill="#A6A6A7" transform="translate(51,80)"/>
<path d="M0 0 C2 2 2 2 2.1953125 5.0390625 C2.17210937 6.22242187 2.14890625 7.40578125 2.125 8.625 C2.10695313 9.81351563 2.08890625 11.00203125 2.0703125 12.2265625 C2.04710937 13.14179687 2.02390625 14.05703125 2 15 C0.02 15 -1.96 15 -4 15 C-3.36 11.288 -3.36 11.288 -1.4375 9.75 C0.96503044 6.82518034 0.18107216 3.68180062 0 0 Z " fill="#5077C6" transform="translate(32,58)"/>
<path d="M0 0 C1.65 0.33 3.3 0.66 5 1 C5 2.65 5 4.3 5 6 C3.125 6.625 3.125 6.625 1 7 C0.34 6.34 -0.32 5.68 -1 5 C-0.625 2.375 -0.625 2.375 0 0 Z " fill="#B6CE79" transform="translate(67,27)"/>
<path d="M0 0 C2.66666667 0.66666667 5.33333333 1.33333333 8 2 C7.34 3.32 6.68 4.64 6 6 C3.69 5.34 1.38 4.68 -1 4 C-0.67 2.68 -0.34 1.36 0 0 Z " fill="#2D416D" transform="translate(47,95)"/>
<path d="M0 0 C3 1 3 1 4 3 C6.02463255 3.65213292 6.02463255 3.65213292 8 4 C7.67 4.99 7.34 5.98 7 7 C4.9375 7.6875 4.9375 7.6875 3 8 C0.9375 5.6875 0.9375 5.6875 -1 3 C-0.67 2.01 -0.34 1.02 0 0 Z " fill="#283960" transform="translate(39,89)"/>
<path d="M0 0 C0.99 0 1.98 0 3 0 C3.36923077 5.53846154 3.36923077 5.53846154 1.5 7.875 C0.7575 8.431875 0.7575 8.431875 0 9 C-0.33 8.34 -0.66 7.68 -1 7 C-2.65 7 -4.3 7 -6 7 C-6 6.67 -6 6.34 -6 6 C-4.35 5.67 -2.7 5.34 -1 5 C-1.33 4.01 -1.66 3.02 -2 2 C-1.34 2 -0.68 2 0 2 C0 1.34 0 0.68 0 0 Z " fill="#7186B0" transform="translate(72,69)"/>
<path d="M0 0 C1.32 0.66 2.64 1.32 4 2 C3.01 2.495 3.01 2.495 2 3 C2 3.66 2 4.32 2 5 C-1 7 -1 7 -4 7 C-4.33 5.35 -4.66 3.7 -5 2 C-3.68 2 -2.36 2 -1 2 C-0.67 1.34 -0.34 0.68 0 0 Z " fill="#2C406B" transform="translate(77,94)"/>
<path d="M0 0 C0.99 0 1.98 0 3 0 C3.83819158 1.62249941 4.6704116 3.24808497 5.5 4.875 C5.9640625 5.77992187 6.428125 6.68484375 6.90625 7.6171875 C8 10 8 10 8 12 C7.01 12 6.02 12 5 12 C4.731875 11.071875 4.46375 10.14375 4.1875 9.1875 C3.05059563 6.13580933 2.25240693 5.1500248 0 3 C0 2.01 0 1.02 0 0 Z " fill="#AEB0B4" transform="translate(72,77)"/>
<path d="M0 0 C0.33 0.99 0.66 1.98 1 3 C-0.8125 5.6875 -0.8125 5.6875 -3 8 C-3.66 8 -4.32 8 -5 8 C-5.99 5.69 -6.98 3.38 -8 1 C-6.8553125 1.309375 -6.8553125 1.309375 -5.6875 1.625 C-2.78114056 2.33391203 -2.78114056 2.33391203 0 0 Z " fill="#F3F6FD" transform="translate(85,81)"/>
<path d="M0 0 C1.2380014 3.57644848 0.74926071 6.33694766 0 10 C2.97 10 5.94 10 9 10 C9 10.33 9 10.66 9 11 C5.7 11 2.4 11 -1 11 C-3.16419412 6.67161176 -3.20068706 5.50257649 -2 1 C-1.34 0.67 -0.68 0.34 0 0 Z " fill="#D1DDF4" transform="translate(38,55)"/>
<path d="M0 0 C1 3 1 3 1 7 C-0.65 7.33 -2.3 7.66 -4 8 C-4 5.69 -4 3.38 -4 1 C-2.68 0.67 -1.36 0.34 0 0 Z " fill="#314878" transform="translate(96,62)"/>
<path d="M0 0 C0.33 0 0.66 0 1 0 C1.07347656 1.485 1.07347656 1.485 1.1484375 3 C1.52403107 9.85523329 1.97846489 16.39631865 4 23 C3.34 23 2.68 23 2 23 C0.9375 20.625 0.9375 20.625 0 18 C0.33 17.34 0.66 16.68 1 16 C0.34 15.67 -0.32 15.34 -1 15 C-0.67 10.05 -0.34 5.1 0 0 Z " fill="#7DA6FA" transform="translate(34,58)"/>
<path d="M0 0 C0.33 0.99 0.66 1.98 1 3 C0.33333333 4.33333333 -0.33333333 5.66666667 -1 7 C-1.38749213 9.32495277 -1.72982839 11.65851268 -2 14 C-3.32 13.67 -4.64 13.34 -6 13 C-5.34 12.67 -4.68 12.34 -4 12 C-3.855625 10.9275 -3.71125 9.855 -3.5625 8.75 C-3.0046281 5.03085397 -2.12061593 3.04262285 0 0 Z " fill="#83ABF7" transform="translate(104,109)"/>
<path d="M0 0 C3.37503669 1.1858237 5.64722731 2.27573689 8 5 C7.34 5.66 6.68 6.32 6 7 C4 7 4 7 2 6 C0.75 2.9375 0.75 2.9375 0 0 Z " fill="#75A2FC" transform="translate(71,43)"/>
<path d="M0 0 C-1.875 4.75 -1.875 4.75 -3 7 C-4.32 6.67 -5.64 6.34 -7 6 C-7 5.01 -7 4.02 -7 3 C-4.46815512 0.64276511 -3.52809907 0 0 0 Z " fill="#74A1FC" transform="translate(54,43)"/>
<path d="M0 0 C2.31 0 4.62 0 7 0 C6.67 0.99 6.34 1.98 6 3 C5.34 3 4.68 3 4 3 C4 4.32 4 5.64 4 7 C3.01 7 2.02 7 1 7 C0.67 4.69 0.34 2.38 0 0 Z " fill="#E1E1E1" transform="translate(59,105)"/>
<path d="M0 0 C3 1 3 1 5 3 C4.67 3.66 4.34 4.32 4 5 C5.65 5.33 7.3 5.66 9 6 C9 6.33 9 6.66 9 7 C7.35 7 5.7 7 4 7 C3.67 7.66 3.34 8.32 3 9 C2.34 8.67 1.68 8.34 1 8 C0.40644386 5.35139573 0.25790731 2.70802678 0 0 Z " fill="#6E83AD" transform="translate(50,69)"/>
<path d="M0 0 C0.99 0.33 1.98 0.66 3 1 C3.6875 3.0625 3.6875 3.0625 4 5 C2.35 5.66 0.7 6.32 -1 7 C-1.66 6.34 -2.32 5.68 -3 5 C-3 4.01 -3 3.02 -3 2 C-2.34 2 -1.68 2 -1 2 C-0.67 1.34 -0.34 0.68 0 0 Z " fill="#D6E244" transform="translate(40,34)"/>
<path d="M0 0 C1.32 0 2.64 0 4 0 C4.33 0.66 4.66 1.32 5 2 C5.66 1.34 6.32 0.68 7 0 C7.33 1.32 7.66 2.64 8 4 C1.25 5.125 1.25 5.125 -1 4 C-0.67 2.68 -0.34 1.36 0 0 Z " fill="#1E2B48" transform="translate(56,98)"/>
<path d="M0 0 C7.50769231 -0.36923077 7.50769231 -0.36923077 10 1.5 C10.495 2.2425 10.495 2.2425 11 3 C10.01 4.485 10.01 4.485 9 6 C8.67 5.01 8.34 4.02 8 3 C4.88214887 3.64644661 4.88214887 3.64644661 4 6 C3.34 5.67 2.68 5.34 2 5 C2.66 3.68 3.32 2.36 4 1 C2.68 0.67 1.36 0.34 0 0 Z " fill="#4D72BF" transform="translate(51,96)"/>
<path d="M0 0 C3.3 0 6.6 0 10 0 C10 0.33 10 0.66 10 1 C7.03 1 4.06 1 1 1 C1.33 3.64 1.66 6.28 2 9 C1.01 9 0.02 9 -1 9 C-0.67 6.03 -0.34 3.06 0 0 Z " fill="#CCDCFC" transform="translate(37,68)"/>
<path d="M0 0 C0.33 0.66 0.66 1.32 1 2 C1.99 2 2.98 2 4 2 C3.67 3.65 3.34 5.3 3 7 C2.34 7 1.68 7 1 7 C1 6.34 1 5.68 1 5 C0.01 4.67 -0.98 4.34 -2 4 C-1.34 2.68 -0.68 1.36 0 0 Z " fill="#C2D563" transform="translate(34,39)"/>
<path d="M0 0 C0.99 0.33 1.98 0.66 3 1 C2.34 2.32 1.68 3.64 1 5 C-0.32 5 -1.64 5 -3 5 C-2.625 3.0625 -2.625 3.0625 -2 1 C-1.34 0.67 -0.68 0.34 0 0 Z " fill="#C3D661" transform="translate(90,40)"/>
<path d="M0 0 C1.65 0.33 3.3 0.66 5 1 C4.34 3.31 3.68 5.62 3 8 C2.34 7.34 1.68 6.68 1 6 C0.01 6.495 0.01 6.495 -1 7 C-0.67 4.69 -0.34 2.38 0 0 Z " fill="#E5EDFD" transform="translate(118,46)"/>
<path d="M0 0 C2.0625 0.4375 2.0625 0.4375 4 1 C4.33 2.32 4.66 3.64 5 5 C3.68 4.67 2.36 4.34 1 4 C0.67 4.66 0.34 5.32 0 6 C-0.38218767 4.34385343 -0.71395102 2.67542976 -1 1 C-0.67 0.67 -0.34 0.34 0 0 Z " fill="#6A6A6A" transform="translate(76,103)"/>
<path d="M0 0 C0.66 0 1.32 0 2 0 C1.67 1.65 1.34 3.3 1 5 C-0.98 5.33 -2.96 5.66 -5 6 C-3.38405168 3.95880212 -1.7143618 1.95927063 0 0 Z " fill="#030408" transform="translate(96,99)"/>
<path d="M0 0 C0.66 0.99 1.32 1.98 2 3 C2.99 3.33 3.98 3.66 5 4 C5 4.66 5 5.32 5 6 C3.68 5.67 2.36 5.34 1 5 C1 5.66 1 6.32 1 7 C0.34 7 -0.32 7 -1 7 C-1.66 5.35 -2.32 3.7 -3 2 C-2.34 2 -1.68 2 -1 2 C-0.67 1.34 -0.34 0.68 0 0 Z " fill="#CDDD51" transform="translate(46,30)"/>
<path d="M0 0 C1.65 0.33 3.3 0.66 5 1 C4 4 4 4 2 5 C2.33 5.66 2.66 6.32 3 7 C1.68 6.67 0.36 6.34 -1 6 C-0.67 4.02 -0.34 2.04 0 0 Z " fill="#CFDE4F" transform="translate(74,29)"/>
<path d="M0 0 C1.35432675 1.31200404 2.68733482 2.64631404 4 4 C4 4.33 4 4.66 4 5 C1.69 5 -0.62 5 -3 5 C-3 4.01 -3 3.02 -3 2 C-2.01 2 -1.02 2 0 2 C0 1.34 0 0.68 0 0 Z " fill="#F7F7F7" transform="translate(67,107)"/>
<path d="M0 0 C0.66 0 1.32 0 2 0 C1.67 1.98 1.34 3.96 1 6 C-0.32 6.33 -1.64 6.66 -3 7 C-2.67 5.68 -2.34 4.36 -2 3 C-1.34 3 -0.68 3 0 3 C0 2.01 0 1.02 0 0 Z " fill="#F8F8F8" transform="translate(55,104)"/>
<path d="M0 0 C0.66 0.33 1.32 0.66 2 1 C1.67 1.99 1.34 2.98 1 4 C1.66 4 2.32 4 3 4 C3 4.99 3 5.98 3 7 C2.01 7.33 1.02 7.66 0 8 C-0.66 6.35 -1.32 4.7 -2 3 C-1.34 3 -0.68 3 0 3 C0 2.01 0 1.02 0 0 Z " fill="#C5CCDA" transform="translate(50,73)"/>
<path d="M0 0 C0.33 0 0.66 0 1 0 C1 1.98 1 3.96 1 6 C0.34 5.67 -0.32 5.34 -1 5 C-1.66 5.66 -2.32 6.32 -3 7 C-4 6 -4 6 -4.0625 3.4375 C-4.041875 2.633125 -4.02125 1.82875 -4 1 C-3.01 1.33 -2.02 1.66 -1 2 C-0.67 1.34 -0.34 0.68 0 0 Z " fill="#DCE63B" transform="translate(57,27)"/>
<path d="M0 0 C2.31 0.33 4.62 0.66 7 1 C6.67 1.99 6.34 2.98 6 4 C4.02 4 2.04 4 0 4 C0 2.68 0 1.36 0 0 Z " fill="#E6E7E8" transform="translate(86,107)"/>
<path d="M0 0 C0.33 1.32 0.66 2.64 1 4 C-0.98 4 -2.96 4 -5 4 C-5.33 3.01 -5.66 2.02 -6 1 C-4.7934375 1.0309375 -4.7934375 1.0309375 -3.5625 1.0625 C-1.06645115 1.29633621 -1.06645115 1.29633621 0 0 Z " fill="#E6E6E7" transform="translate(38,107)"/>
<path d="M0 0 C0 1.98 0 3.96 0 6 C-0.66 6 -1.32 6 -2 6 C-2 5.34 -2 4.68 -2 4 C-2.99 3.67 -3.98 3.34 -5 3 C-2.25 0 -2.25 0 0 0 Z " fill="#686868" transform="translate(48,103)"/>
<path d="M0 0 C0.99 0 1.98 0 3 0 C3.66 1.98 4.32 3.96 5 6 C4.01 6 3.02 6 2 6 C1.67 6.99 1.34 7.98 1 9 C0.375 6.6875 0.375 6.6875 0 4 C0.66 3.01 1.32 2.02 2 1 C1.34 0.67 0.68 0.34 0 0 Z " fill="#233355" transform="translate(32,78)"/>
<path d="M0 0 C1 3 1 3 1 6 C1.33 6.66 1.66 7.32 2 8 C0.68 8 -0.64 8 -2 8 C-2 5.69 -2 3.38 -2 1 C-1.34 0.67 -0.68 0.34 0 0 Z " fill="#4D73BF" transform="translate(30,57)"/>
<path d="M0 0 C0.99 0 1.98 0 3 0 C3.66 2.31 4.32 4.62 5 7 C4.01 6.67 3.02 6.34 2 6 C0.8125 2.9375 0.8125 2.9375 0 0 Z " fill="#F9F9F9" transform="translate(78,101)"/>
<path d="M0 0 C0.33 0.66 0.66 1.32 1 2 C1.99 2 2.98 2 4 2 C4.33 3.98 4.66 5.96 5 8 C2.5 5.6875 2.5 5.6875 0 3 C0 2.01 0 1.02 0 0 Z " fill="#6591E8" transform="translate(35,79)"/>
<path d="M0 0 C2.125 0.375 2.125 0.375 4 1 C3.34 2.65 2.68 4.3 2 6 C0 5 0 5 -2 2 C-1.34 1.34 -0.68 0.68 0 0 Z " fill="#74A1E2" transform="translate(76,31)"/>
</svg>
